<?xml version="1.0" standalone="no"?>
<!DOCTYPE svg PUBLIC "-//W3C//DTD SVG 20010904//EN"
 "http://www.w3.org/TR/2001/REC-SVG-20010904/DTD/svg10.dtd">
<svg version="1.0" xmlns="http://www.w3.org/2000/svg"
 width="512.000000pt" height="512.000000pt" viewBox="0 0 512.000000 512.000000"
 preserveAspectRatio="xMidYMid meet">

<g transform="translate(0.000000,512.000000) scale(0.100000,-0.100000)"
fill="#000000" stroke="none">
<path d="M3895 4539 c-11 -6 -127 -118 -258 -248 -243 -242 -265 -271 -252
-329 5 -26 -3 -37 -89 -120 -53 -51 -107 -97 -121 -102 -19 -7 -171 -1 -516
22 -468 31 -491 31 -542 15 -29 -9 -72 -33 -94 -52 -23 -19 -47 -35 -54 -35
-6 0 -63 50 -126 112 -87 86 -112 116 -107 131 3 10 3 35 -1 55 -6 31 -42 73
-223 256 -120 120 -235 231 -256 247 -44 33 -99 38 -144 15 -15 -8 -269 -257
-564 -553 -575 -576 -563 -562 -543 -640 4 -18 92 -114 249 -271 257 -259 269
-267 345 -251 28 6 126 99 535 508 l501 501 105 -103 c58 -57 119 -113 135
-124 l30 -21 -31 -64 c-23 -46 -72 -107 -180 -223 -82 -88 -156 -175 -163
-193 -17 -40 -9 -106 16 -141 27 -38 173 -108 253 -121 80 -13 167 -1 245 34
28 13 108 71 179 129 92 75 138 107 155 107 15 -1 167 -34 339 -74 l314 -72
24 -59 c22 -55 65 -101 543 -580 285 -286 522 -530 525 -542 4 -13 1 -34 -8
-50 -20 -38 -145 -160 -176 -171 -42 -16 -76 7 -205 137 -103 104 -124 121
-152 121 -35 0 -73 -38 -73 -72 0 -11 42 -63 95 -119 126 -131 126 -132 7
-251 -131 -131 -99 -145 -432 187 -247 246 -279 275 -308 275 -42 0 -72 -30
-72 -72 0 -28 26 -59 237 -269 209 -211 236 -242 236 -270 0 -26 -14 -45 -90
-120 -71 -70 -96 -89 -118 -89 -24 0 -69 40 -270 240 -252 251 -263 259 -312
225 -18 -13 -22 -12 -39 7 -11 11 -37 34 -59 50 -40 29 -40 30 -40 96 0 88
-25 130 -142 243 -105 101 -153 125 -238 116 -45 -4 -55 -3 -55 9 0 24 -201
225 -245 245 -48 22 -133 24 -180 5 -33 -14 -33 -14 -61 25 -39 57 -180 188
-219 205 -19 8 -44 14 -56 14 -15 0 -61 38 -135 112 -94 92 -119 111 -144 111
-42 0 -70 -28 -70 -71 0 -30 11 -46 82 -118 l82 -84 -76 -78 c-96 -97 -121
-145 -121 -232 0 -89 31 -146 126 -236 73 -70 136 -104 194 -104 17 0 23 -6
23 -23 0 -58 34 -121 104 -194 72 -77 132 -115 199 -127 20 -4 37 -13 37 -20
0 -7 7 -36 16 -65 12 -42 31 -69 91 -132 88 -92 121 -114 190 -129 48 -11 51
-13 58 -48 12 -67 45 -119 125 -196 80 -76 139 -106 210 -106 41 0 124 28 155
51 l27 22 96 -96 c131 -130 191 -155 297 -126 30 8 66 36 139 108 54 53 107
110 117 126 18 28 23 30 86 31 45 0 80 7 103 19 42 21 203 176 231 222 19 31
22 32 69 26 92 -11 133 9 247 120 55 54 106 111 113 126 11 28 12 28 79 23 87
-6 125 13 233 116 105 100 138 157 138 237 0 84 -32 134 -178 278 l-119 119
81 146 c81 146 82 147 270 339 159 161 194 193 218 193 16 0 43 6 61 14 45 20
504 484 512 519 19 76 17 79 -353 450 -314 314 -350 347 -380 347 -42 0 -72
-30 -72 -73 0 -29 31 -64 325 -357 179 -179 325 -329 325 -335 0 -6 -90 -100
-200 -210 l-200 -200 -510 510 -510 510 205 205 205 205 78 -78 c87 -86 114
-95 157 -52 29 28 31 45 11 83 -20 38 -167 179 -200 192 -35 13 -75 12 -101
-1z m-2820 -1089 l-510 -510 -205 205 -205 205 510 510 510 510 205 -205 205
-205 -510 -510z m2875 -85 l454 -454 -189 -193 c-187 -190 -191 -195 -270
-335 l-80 -142 -335 334 c-184 184 -332 337 -329 339 3 3 41 12 84 21 116 22
158 59 136 118 -17 44 -50 53 -130 34 -118 -29 -165 -23 -539 63 -335 77 -391
87 -440 73 -13 -3 -83 -55 -155 -114 -73 -60 -152 -119 -177 -131 -67 -33
-156 -31 -243 6 -37 15 -67 31 -67 35 1 3 66 76 146 161 136 146 148 163 209
281 38 75 77 138 96 153 39 33 45 33 591 -3 234 -16 443 -25 465 -22 67 13
106 39 203 136 52 52 99 95 105 95 5 0 215 -205 465 -455z m-2802 -1049 c15
-8 60 -48 100 -89 100 -104 100 -116 -12 -225 -81 -80 -85 -82 -132 -82 -45 0
-50 3 -115 68 -70 69 -86 102 -74 150 8 33 164 192 189 192 9 0 29 -6 44 -14z
m545 -314 c121 -120 123 -113 -50 -284 -83 -82 -149 -139 -166 -143 -47 -12
-80 4 -149 74 -65 65 -68 70 -68 116 l0 48 133 135 c72 74 141 138 152 142 34
14 57 1 148 -88z m419 -270 c70 -70 88 -94 88 -117 0 -24 -30 -59 -180 -209
l-180 -181 -45 0 c-44 0 -49 3 -120 76 -81 83 -91 110 -61 167 8 15 88 100
178 190 206 203 194 200 320 74z m271 -420 c120 -120 120 -120 -20 -264 -198
-203 -228 -211 -351 -85 -61 62 -76 111 -49 163 8 16 71 84 140 152 160 158
157 157 280 34z m477 -382 c0 -15 -30 -53 -92 -116 -121 -124 -120 -124 -247
1 l-96 94 82 83 c80 81 113 133 113 180 0 19 24 -1 120 -98 84 -84 120 -128
120 -144z"/>
<path d="M521 3424 c-44 -37 -44 -91 0 -128 35 -30 58 -32 98 -11 32 16 41 33
41 78 -1 36 -15 58 -47 75 -33 18 -59 14 -92 -14z"/>
<path d="M3170 2140 c-19 -19 -25 -38 -20 -70 1 -8 34 -48 73 -87 59 -61 77
-73 104 -73 35 0 73 38 73 72 0 12 -33 55 -77 99 -83 86 -114 98 -153 59z"/>
</g>
</svg>
