<?xml version="1.0" standalone="no"?>
<!DOCTYPE svg PUBLIC "-//W3C//DTD SVG 20010904//EN"
 "http://www.w3.org/TR/2001/REC-SVG-20010904/DTD/svg10.dtd">
<svg version="1.0" xmlns="http://www.w3.org/2000/svg"
 width="908.000000pt" height="870.000000pt" viewBox="0 0 908.000000 870.000000"
 preserveAspectRatio="xMidYMid meet">

<g transform="translate(0.000000,870.000000) scale(0.100000,-0.100000)"
fill="#000000" stroke="none">
<path d="M5096 8125 c-15 -8 -45 -24 -65 -35 -163 -88 -318 -123 -551 -123
-264 -1 -479 42 -651 129 l-72 36 -41 -21 c-43 -21 -114 -45 -181 -61 -22 -5
-64 -25 -94 -44 -57 -37 -78 -46 -346 -151 -93 -37 -188 -75 -211 -86 -22 -10
-65 -28 -95 -39 -125 -50 -320 -152 -400 -211 -115 -86 -135 -104 -199 -179
-63 -75 -278 -316 -360 -405 -109 -119 -264 -303 -414 -490 -224 -280 -502
-608 -576 -680 -23 -22 -60 -65 -83 -95 -23 -30 -72 -91 -109 -135 -38 -44
-68 -87 -68 -96 0 -13 58 -87 100 -129 3 -3 37 -41 75 -85 77 -87 113 -130
284 -334 62 -75 134 -158 158 -186 25 -27 85 -93 132 -145 103 -114 256 -266
299 -298 l30 -22 115 45 c64 25 120 45 126 45 11 0 109 45 163 76 40 22 114
42 126 35 8 -5 8 -54 1 -161 -5 -85 -14 -274 -19 -420 -5 -146 -14 -384 -19
-530 -12 -326 -32 -1617 -34 -2265 l-2 -480 30 -14 c44 -22 1020 -36 2535 -35
1485 0 2151 11 2176 35 25 26 35 344 31 1014 -4 573 -21 1345 -31 1414 -3 20
-10 185 -16 366 -6 182 -15 395 -20 475 -6 80 -17 249 -26 375 -8 127 -19 259
-23 295 -5 36 -4 69 1 75 10 11 279 -122 409 -203 50 -31 148 -63 164 -54 24
13 264 252 494 492 124 129 318 329 431 443 113 114 206 214 208 223 4 18 -67
113 -118 157 -20 18 -63 66 -95 107 -33 41 -123 140 -200 220 -77 80 -156 163
-175 185 -19 22 -75 85 -124 140 -104 117 -124 141 -191 220 -27 33 -86 101
-130 151 -173 196 -274 312 -325 374 -160 194 -293 334 -442 466 -126 111
-168 140 -238 168 -47 18 -77 31 -145 61 -43 20 -157 61 -440 160 -202 70
-368 135 -435 169 -25 13 -70 26 -100 29 -30 4 -81 16 -112 27 -69 24 -75 24
-112 5z m-1051 -1265 c4 -6 -1 -23 -11 -38 -29 -43 -64 -122 -64 -145 0 -11
-7 -28 -16 -38 -9 -10 -14 -25 -11 -34 6 -13 38 -14 264 -9 142 3 264 10 272
14 8 4 27 3 43 -2 16 -6 39 -7 51 -4 12 3 155 9 317 12 162 3 309 9 325 14 17
4 77 9 134 10 58 0 112 5 120 9 23 12 41 2 41 -21 0 -18 -4 -20 -30 -14 -17 3
-88 -1 -158 -9 -70 -8 -181 -14 -247 -14 -66 1 -205 -1 -310 -5 -104 -3 -300
-8 -435 -11 -135 -3 -278 -8 -318 -11 -84 -7 -92 -14 -116 -109 -8 -33 -26
-98 -40 -145 -14 -47 -26 -94 -26 -106 0 -11 -4 -24 -9 -30 -5 -5 -12 -30 -16
-56 -6 -38 -4 -48 7 -48 17 0 74 68 110 131 15 25 34 52 43 59 9 7 36 44 61
82 34 54 50 70 74 75 17 3 33 10 36 14 9 16 44 10 44 -7 0 -42 -33 -221 -43
-233 -7 -8 -12 -35 -13 -60 0 -25 -4 -70 -8 -98 -6 -42 -5 -53 6 -53 18 0 62
58 93 122 14 29 30 60 35 68 5 8 16 32 25 52 11 24 35 50 68 72 45 30 55 33
71 22 17 -11 20 -27 23 -147 1 -74 5 -140 8 -146 12 -32 50 -9 142 84 52 54
101 109 108 124 17 32 84 79 113 79 25 0 72 -20 72 -30 0 -4 -10 -14 -23 -23
-46 -30 -204 -196 -197 -207 8 -13 100 -35 187 -45 58 -6 62 -6 78 19 23 34
13 56 -25 56 -20 0 -30 5 -30 15 0 8 4 15 8 15 4 0 16 14 25 30 10 17 25 30
33 30 18 0 94 68 94 85 0 7 28 36 63 64 34 28 74 66 89 84 37 48 110 80 159
72 22 -4 39 -11 39 -15 0 -5 -31 -37 -70 -71 -38 -35 -70 -67 -70 -72 0 -4
-20 -33 -45 -64 -25 -31 -45 -63 -43 -72 2 -10 19 -18 43 -23 72 -12 200 -19
213 -10 13 9 41 58 90 158 32 67 38 71 119 81 l56 6 -8 -69 c-4 -38 -6 -91 -5
-119 4 -72 4 -115 2 -155 -3 -46 12 -187 20 -195 14 -14 87 92 93 134 2 14 17
52 34 84 34 62 61 159 61 220 0 44 13 52 105 60 33 3 65 6 70 7 22 5 25 -1 11
-23 -10 -15 -13 -35 -9 -62 3 -22 5 -53 3 -70 -2 -16 -3 -100 -4 -185 0 -126
-3 -157 -15 -166 -14 -11 -13 -16 3 -46 13 -25 17 -44 12 -64 -12 -46 -26
-482 -24 -709 1 -22 1 -49 0 -60 0 -11 -1 -58 -2 -105 -1 -47 -6 -97 -12 -113
-8 -20 -7 -31 3 -44 9 -10 15 -44 16 -87 0 -39 4 -83 8 -98 7 -26 5 -27 -58
-47 -44 -13 -74 -17 -94 -12 l-28 7 -1 133 c0 72 2 134 6 136 4 2 4 26 0 52
-5 26 -4 89 0 138 5 50 9 115 9 145 -1 115 1 130 11 130 7 0 8 32 3 98 -4 53
-6 111 -5 127 4 51 10 214 14 330 2 89 0 110 -11 110 -8 0 -20 -16 -26 -36 -7
-19 -24 -60 -39 -91 -14 -30 -26 -62 -26 -72 0 -9 -4 -24 -10 -34 -18 -33 -50
-145 -50 -179 0 -33 -10 -44 -48 -48 -10 -1 -24 -5 -33 -9 -9 -4 -34 -6 -55
-4 l-39 3 -7 70 c-4 39 -10 110 -13 160 -7 95 -17 113 -50 91 -38 -25 -179
-77 -199 -74 -28 4 -32 51 -12 112 23 67 7 96 -29 56 -19 -21 -225 -130 -245
-130 -6 0 -35 -11 -63 -24 -77 -35 -118 -46 -168 -46 -92 0 -102 47 -29 144
22 29 40 57 40 63 0 5 9 18 20 28 11 10 20 29 20 42 0 25 0 25 -110 28 -36 1
-103 7 -150 14 -128 19 -125 20 -123 -9 12 -193 15 -275 13 -310 -1 -14 7 -51
19 -84 l21 -58 -27 -21 c-90 -71 -127 -83 -136 -44 -8 29 -16 128 -22 257 -3
58 -9 139 -14 180 -5 41 -7 78 -4 82 8 14 -8 48 -22 48 -15 0 -87 -137 -89
-169 0 -11 -8 -26 -17 -33 -9 -7 -29 -45 -44 -85 -33 -86 -49 -105 -109 -128
-51 -20 -76 -15 -76 15 0 29 -16 25 -63 -15 -22 -19 -56 -40 -74 -47 -18 -7
-33 -15 -33 -19 0 -10 -141 -79 -160 -79 -8 0 -41 -16 -73 -35 -32 -19 -63
-35 -70 -35 -7 0 -25 -9 -42 -20 -16 -11 -41 -20 -53 -20 -13 0 -53 -14 -89
-30 -37 -17 -87 -33 -112 -36 -25 -3 -63 -12 -84 -20 -48 -18 -77 -5 -77 34 1
45 38 171 65 220 14 24 25 52 25 62 0 9 9 25 20 35 11 10 20 27 20 37 0 11 9
31 20 45 11 14 20 34 20 44 0 9 8 25 17 35 9 9 27 39 40 66 l22 49 -22 8 c-30
12 -120 20 -292 27 -77 3 -187 11 -245 17 -87 10 -105 15 -108 30 -5 23 15 47
38 47 9 0 28 9 41 19 14 10 47 26 75 34 28 8 60 20 70 25 11 6 46 21 79 33 33
13 65 27 71 31 6 4 43 24 82 44 40 19 72 39 72 44 0 5 15 13 33 19 19 7 44 21
57 33 13 12 42 25 64 28 23 4 49 11 58 15 13 5 21 0 29 -19 10 -22 9 -29 -6
-46 -10 -11 -24 -20 -32 -20 -7 0 -32 -12 -55 -27 -57 -38 -172 -98 -227 -119
-64 -24 -111 -54 -111 -69 0 -8 18 -15 48 -18 26 -3 88 -10 137 -15 50 -6 114
-16 144 -23 52 -13 54 -12 73 11 11 14 31 47 45 74 14 27 58 100 99 162 41 62
74 116 74 120 0 3 23 35 51 71 28 36 57 79 64 97 7 17 23 40 34 50 31 28 27
49 -6 42 -30 -6 -63 -7 -238 -7 -60 0 -163 -1 -228 -3 -93 -3 -121 -1 -133 11
-19 19 -7 36 20 29 13 -3 153 -6 312 -6 242 -1 295 1 327 15 22 9 37 22 37 32
0 9 8 26 19 37 10 12 35 53 56 91 20 39 44 76 53 83 19 15 128 16 137 2z m285
-135 c13 -16 6 -35 -15 -35 -18 0 -28 17 -21 35 7 19 20 19 36 0z m90 -25 c0
-20 -15 -25 -44 -14 -22 8 -8 34 20 34 17 0 24 -6 24 -20z m-501 -1376 c26 -4
31 -8 20 -15 -8 -5 -23 -9 -33 -9 -11 0 -28 -8 -39 -17 -18 -17 -21 -16 -59 5
-22 12 -46 18 -52 14 -6 -4 -27 -7 -46 -7 l-35 0 3 -60 c1 -32 7 -62 13 -66 7
-4 8 -12 5 -18 -4 -6 -4 -20 -1 -31 5 -15 12 -18 34 -14 34 7 55 -24 22 -33
-11 -3 -17 -11 -15 -18 4 -10 20 -12 58 -8 51 5 53 5 66 -26 11 -27 10 -34 -4
-50 -14 -16 -15 -22 -4 -46 10 -23 10 -29 0 -33 -22 -7 -13 -32 12 -32 14 0
28 -5 31 -10 4 -7 12 -7 25 0 28 15 40 12 40 -10 0 -11 7 -20 15 -20 8 0 15 5
15 11 0 5 5 7 10 4 14 -9 13 -35 -2 -35 -6 0 -20 -8 -30 -17 -18 -16 -20 -16
-41 9 -36 43 -59 50 -83 25 -22 -24 -21 -47 2 -47 8 0 14 -4 14 -10 0 -5 7
-10 15 -10 20 0 30 -26 18 -43 -18 -22 -8 -86 18 -115 13 -15 35 -40 49 -55
14 -15 42 -39 62 -52 34 -23 42 -24 87 -14 57 12 67 28 62 95 -2 29 2 44 15
55 16 13 17 12 11 -4 -16 -42 -19 -67 -8 -67 6 0 11 5 11 12 0 6 6 19 14 27 7
9 40 66 71 126 32 61 74 139 92 175 19 36 45 76 58 90 12 14 40 63 62 110 22
47 48 92 59 102 13 11 42 17 99 19 70 3 80 1 79 -14 -1 -9 48 -68 110 -132 97
-99 116 -115 144 -115 25 0 33 -5 38 -25 3 -14 13 -29 20 -33 8 -5 29 -29 47
-54 75 -108 139 -187 156 -193 9 -3 27 -23 40 -45 12 -21 30 -42 41 -45 63
-20 42 -108 -81 -339 -51 -94 -99 -182 -109 -196 -9 -14 -43 -74 -76 -133 -32
-59 -66 -120 -74 -135 -9 -15 -31 -55 -50 -89 -24 -44 -41 -63 -54 -63 -18 0
-225 202 -417 408 -48 50 -90 92 -94 92 -8 0 -140 -114 -199 -172 -38 -38 -73
-46 -266 -63 -91 -8 -245 -22 -343 -31 l-178 -17 -24 24 c-38 38 -428 812
-439 869 -6 36 -5 37 201 242 341 337 362 356 404 363 20 4 52 3 72 0 19 -4
37 -3 40 2 7 10 221 15 276 7z m1021 -92 c0 -4 -16 -6 -35 -4 -19 2 -35 6 -35
8 0 2 16 4 35 4 19 0 35 -4 35 -8z m-1107 -22 c14 -12 40 -20 61 -20 31 0 36
-3 36 -22 -1 -26 -37 -75 -47 -64 -4 4 -2 15 4 25 16 25 2 41 -38 44 -34 2
-58 20 -59 45 0 17 14 15 43 -8z m-85 -26 c-5 -28 -28 -29 -28 -1 0 13 3 27 7
30 10 11 25 -9 21 -29z m332 -44 c0 -5 -4 -10 -9 -10 -6 0 -13 5 -16 10 -3 6
1 10 9 10 9 0 16 -4 16 -10z m40 -68 c0 -25 0 -25 -16 -6 -11 13 -17 15 -20 7
-10 -23 -24 -14 -24 15 0 20 3 23 10 12 8 -12 10 -12 16 3 9 25 34 2 34 -31z
m-7 -346 c6 -15 -1 -26 -15 -26 -4 0 -8 9 -8 20 0 23 15 27 23 6z"/>
<path d="M3712 6373 c-16 -21 -35 -49 -42 -63 -7 -14 -16 -27 -20 -30 -4 -3
-20 -30 -35 -60 -15 -30 -34 -59 -41 -63 -8 -4 -14 -17 -14 -27 0 -11 -9 -24
-19 -30 -11 -5 -23 -20 -26 -32 -4 -13 -23 -47 -42 -76 -19 -30 -31 -57 -27
-62 5 -4 47 -10 94 -12 l85 -3 17 35 c9 19 20 55 24 80 3 25 12 59 19 75 22
50 35 97 35 122 0 13 9 41 20 63 21 41 27 105 11 114 -5 4 -22 -11 -39 -31z"/>
<path d="M3937 6065 c-15 -14 -27 -32 -27 -39 0 -7 -14 -30 -30 -52 -38 -47
-36 -76 5 -85 17 -4 37 -9 45 -13 34 -14 44 10 48 113 3 56 0 101 -4 101 -5 0
-22 -11 -37 -25z"/>
<path d="M5038 6037 c-16 -16 -28 -33 -28 -37 0 -16 27 -28 75 -33 81 -10 147
-26 173 -43 25 -16 52 -13 52 8 0 6 8 21 19 32 28 31 34 61 16 76 -9 8 -65 15
-147 19 l-133 7 -27 -29z"/>
<path d="M5466 5976 c-11 -17 -22 -47 -27 -66 -4 -19 -13 -54 -19 -78 -13 -54
-6 -66 33 -58 55 11 65 29 66 114 0 42 -2 84 -5 94 -9 29 -29 27 -48 -6z"/>
<path d="M4935 5883 c-41 -9 -103 -141 -75 -158 18 -11 97 12 192 58 110 53
114 70 21 86 -105 18 -117 19 -138 14z"/>
<path d="M3384 5842 c-6 -4 -21 -28 -33 -54 -12 -26 -32 -64 -46 -84 -14 -20
-25 -47 -25 -59 0 -12 -9 -30 -20 -40 -11 -10 -20 -23 -20 -29 0 -7 -18 -56
-40 -110 -43 -106 -48 -133 -25 -142 21 -9 135 33 284 103 40 19 90 41 110 48
66 24 151 66 151 75 0 5 13 16 29 25 16 8 35 20 43 27 7 7 42 33 78 58 75 51
89 67 90 97 0 30 -21 39 -108 47 -70 6 -74 5 -98 -21 -13 -14 -29 -46 -35 -69
-12 -47 -25 -55 -79 -49 -19 2 -41 4 -47 4 -19 1 -16 38 7 101 19 52 19 56 3
68 -18 13 -200 17 -219 4z"/>
<path d="M5915 5380 c3 -5 8 -10 11 -10 2 0 4 5 4 10 0 6 -5 10 -11 10 -5 0
-7 -4 -4 -10z"/>
<path d="M3620 5260 c0 -5 5 -10 11 -10 5 0 7 5 4 10 -3 6 -8 10 -11 10 -2 0
-4 -4 -4 -10z"/>
<path d="M3620 5221 c0 -15 6 -21 21 -21 25 0 22 33 -4 38 -12 2 -17 -3 -17
-17z"/>
<path d="M3785 5028 c-15 -44 -8 -70 18 -66 18 2 22 9 22 38 0 25 -5 36 -18
38 -9 2 -19 -2 -22 -10z"/>
<path d="M4590 5013 c-36 -13 -50 -36 -50 -83 0 -80 40 -146 100 -165 34 -11
75 20 89 65 22 73 -11 149 -75 176 -36 15 -41 15 -64 7z"/>
<path d="M3088 4764 c-46 -24 -49 -94 -9 -160 26 -42 57 -49 87 -19 20 20 24
34 24 80 0 49 -4 60 -29 86 -34 33 -36 34 -73 13z"/>
<path d="M4995 4575 c-20 -20 -25 -34 -25 -78 0 -44 6 -62 30 -95 51 -71 102
-82 151 -33 23 24 29 38 29 73 0 54 -27 106 -70 136 -43 29 -85 28 -115 -3z"/>
<path d="M3671 4554 c-50 -64 0 -194 75 -194 34 0 57 35 62 93 5 71 -26 121
-80 125 -29 2 -40 -2 -57 -24z"/>
<path d="M4663 4538 c-51 -55 -30 -166 39 -208 43 -26 60 -25 97 6 27 22 31
32 31 76 0 59 -30 120 -67 137 -38 18 -78 13 -100 -11z"/>
<path d="M4326 4506 c-46 -45 -30 -158 29 -204 81 -64 161 17 132 132 -15 56
-42 81 -99 91 -31 6 -41 3 -62 -19z"/>
<path d="M3979 4319 c-66 -31 -99 -65 -84 -89 13 -21 100 -6 152 26 40 25 48
35 48 59 0 42 -33 43 -116 4z"/>
<path d="M4211 4180 c-33 -24 -41 -36 -39 -57 3 -23 -5 -30 -64 -60 -69 -35
-93 -59 -78 -82 11 -19 84 -7 135 22 34 19 40 28 43 60 3 40 14 49 75 62 38 8
44 31 17 61 -30 31 -38 30 -89 -6z"/>
<path d="M3860 4178 c-35 -10 -78 -36 -117 -71 -17 -15 -20 -23 -12 -34 18
-21 65 -15 126 14 60 30 87 60 77 87 -7 18 -23 19 -74 4z"/>
<path d="M4749 4108 c-32 -11 -49 -46 -49 -99 0 -50 19 -87 65 -128 44 -38 68
-39 104 -3 64 63 41 168 -47 214 -37 20 -53 24 -73 16z"/>
<path d="M3685 4014 c-65 -28 -105 -59 -105 -82 0 -21 95 -10 149 18 38 19 42
24 39 52 -2 17 -7 33 -13 34 -5 2 -37 -8 -70 -22z"/>
</g>
</svg>
