<?xml version="1.0" standalone="no"?>
<!DOCTYPE svg PUBLIC "-//W3C//DTD SVG 20010904//EN"
 "http://www.w3.org/TR/2001/REC-SVG-20010904/DTD/svg10.dtd">
<svg version="1.0" xmlns="http://www.w3.org/2000/svg"
 width="910.000000pt" height="792.000000pt" viewBox="0 0 910.000000 792.000000"
 preserveAspectRatio="xMidYMid meet">

<g transform="translate(0.000000,792.000000) scale(0.100000,-0.100000)"
fill="#000000" stroke="none">
<path d="M4107 7344 c-4 -4 -7 -14 -7 -23 0 -18 60 -143 73 -152 22 -15 -13
-17 -42 -3 -50 25 -104 11 -183 -49 -46 -35 -56 -62 -32 -88 17 -19 16 -21
-19 -57 -38 -39 -47 -62 -23 -62 7 0 47 11 89 25 60 21 80 23 102 15 22 -8 25
-14 17 -22 -22 -22 -12 -47 40 -92 83 -73 125 -88 222 -82 44 3 105 8 133 11
67 9 119 -8 212 -69 38 -25 75 -46 80 -46 6 0 11 -4 11 -9 0 -5 8 -11 18 -15
9 -3 60 -33 112 -66 52 -33 105 -65 117 -70 11 -5 24 -14 28 -20 4 -6 26 -20
51 -31 24 -12 44 -25 44 -30 0 -5 5 -9 10 -9 6 0 33 -11 62 -25 28 -14 62 -25
74 -25 13 0 25 -4 28 -9 3 -4 23 -11 45 -14 29 -3 87 -37 213 -121 95 -64 193
-131 218 -149 25 -18 77 -55 115 -82 39 -27 76 -55 83 -62 7 -7 16 -13 20 -13
4 0 19 -11 34 -24 l28 -23 -19 -39 c-19 -41 -51 -182 -51 -227 0 -20 5 -27 19
-27 50 0 130 -122 117 -177 -54 -219 -45 -294 44 -383 31 -30 67 -77 80 -105
13 -27 33 -63 45 -80 38 -56 45 -77 45 -139 0 -91 -27 -178 -69 -223 -11 -11
-36 -45 -54 -75 -42 -65 -59 -83 -118 -131 l-46 -37 -194 0 c-245 -1 -432 -24
-714 -90 -27 -7 -54 -16 -59 -21 -6 -5 -19 -9 -31 -9 -12 0 -25 -4 -31 -8 -5
-5 -36 -17 -69 -26 -33 -10 -71 -21 -85 -26 -14 -4 -59 -13 -100 -20 -106 -17
-132 -32 -229 -126 -94 -91 -159 -143 -178 -144 -7 0 -13 -4 -13 -10 0 -5 -5
-10 -11 -10 -29 0 -193 -123 -289 -216 -58 -56 -123 -116 -145 -135 -22 -19
-47 -42 -56 -51 -9 -10 -20 -18 -24 -18 -4 0 -27 -17 -51 -38 -75 -65 -103
-84 -116 -76 -12 7 -32 23 -152 124 -23 19 -59 49 -80 65 -21 17 -62 48 -90
71 -173 138 -263 208 -351 274 -55 41 -102 77 -105 80 -3 3 -23 18 -45 35 -22
16 -42 31 -45 34 -3 4 -12 11 -21 16 -9 6 -47 33 -83 60 -37 28 -106 79 -154
115 -48 36 -123 90 -167 120 -44 30 -85 59 -92 65 -6 5 -28 21 -48 35 -20 14
-49 35 -65 48 -15 12 -31 22 -36 22 -4 0 -17 9 -28 19 -12 10 -79 58 -151 106
-71 48 -155 105 -185 125 -178 121 -654 425 -750 478 -24 14 -70 41 -100 61
-30 19 -68 43 -85 52 -28 15 -84 47 -210 121 -27 16 -58 32 -67 35 -10 3 -18
9 -18 14 0 5 -8 9 -18 9 -16 0 -17 -6 -11 -52 9 -76 44 -235 59 -273 4 -11 16
-49 25 -85 9 -36 21 -74 25 -85 4 -11 13 -33 18 -50 26 -77 65 -183 78 -212 8
-17 14 -34 14 -37 0 -3 9 -26 20 -51 11 -25 29 -64 39 -87 17 -39 84 -185 114
-248 7 -14 14 -27 17 -30 6 -5 47 -83 83 -155 17 -35 83 -145 139 -233 10 -15
21 -34 25 -42 9 -20 152 -229 208 -305 25 -33 56 -76 69 -95 22 -33 123 -161
172 -220 160 -188 242 -277 424 -460 194 -194 399 -383 506 -465 21 -16 57
-46 79 -66 22 -19 85 -69 140 -110 55 -40 104 -78 110 -82 88 -69 510 -357
522 -357 4 0 21 -11 39 -25 18 -14 37 -25 41 -25 5 0 18 -8 29 -17 10 -10 35
-26 54 -35 19 -10 44 -24 55 -30 46 -30 123 -75 210 -122 11 -6 22 -13 25 -16
3 -3 28 -16 55 -30 148 -76 240 -126 243 -132 2 -5 8 -8 14 -8 16 0 122 -53
126 -62 2 -4 9 -8 15 -8 7 0 53 -20 102 -43 91 -44 150 -71 195 -89 46 -19 85
-35 130 -56 73 -34 189 -83 231 -97 22 -8 54 -21 72 -28 84 -37 160 -68 252
-102 55 -20 108 -41 117 -46 10 -5 26 -9 36 -9 10 0 22 -4 27 -9 6 -5 37 -16
70 -26 33 -10 64 -22 70 -27 5 -4 18 -8 30 -8 12 0 25 -4 30 -9 6 -4 51 -20
100 -36 50 -15 99 -31 110 -35 11 -5 45 -16 75 -25 30 -9 63 -20 72 -26 10 -5
28 -9 41 -9 13 0 27 -4 32 -9 10 -8 62 -24 145 -43 78 -18 200 -21 228 -6 40
21 54 66 37 115 -20 59 -100 190 -135 223 -3 3 -20 23 -39 45 -72 85 -328 350
-588 611 -150 150 -273 279 -273 287 0 8 16 45 35 83 19 37 35 74 35 81 0 7 5
13 10 13 6 0 10 6 10 12 0 11 38 121 60 173 8 20 27 75 48 145 19 63 50 184
62 245 7 33 16 80 21 105 8 43 17 101 37 267 7 55 15 77 35 96 48 48 155 115
196 122 23 4 43 11 47 16 3 5 15 9 28 9 12 0 26 4 32 9 5 4 32 16 59 26 58 20
93 34 117 46 10 5 25 9 33 9 8 0 15 5 15 10 0 6 7 10 15 10 8 0 40 12 72 26
87 39 89 40 222 84 72 24 146 56 175 76 88 59 180 191 226 321 12 32 25 66 30
75 9 16 45 177 57 251 3 20 10 37 14 37 5 0 9 10 9 23 0 12 7 31 15 41 8 11
15 28 15 38 0 10 4 18 8 18 21 0 63 166 82 325 4 39 11 84 14 100 4 24 14 227
16 323 0 30 16 28 64 -11 23 -19 46 -36 51 -38 6 -2 50 -31 99 -64 49 -33 106
-69 125 -81 79 -45 118 -74 154 -116 49 -55 107 -143 107 -162 0 -7 16 -26 36
-41 59 -45 92 -84 120 -141 14 -29 32 -58 40 -65 8 -6 14 -16 14 -21 0 -27 90
-88 131 -88 18 0 20 4 15 25 -9 36 15 42 60 15 32 -20 37 -21 51 -7 13 12 14
21 4 48 -8 24 -8 35 0 45 13 16 61 18 87 5 59 -31 230 -42 239 -15 4 13 -39
34 -70 34 -12 0 -31 12 -42 27 -12 14 -30 27 -41 28 -40 5 -85 18 -90 26 -3 5
-18 9 -33 9 -46 0 -196 123 -247 203 -18 27 -43 47 -89 68 -66 32 -87 52 -195
184 -81 100 -153 168 -295 280 -81 64 -215 187 -249 229 -28 34 -36 52 -36 84
0 54 -17 88 -54 112 -45 27 -69 56 -112 135 -20 39 -47 84 -59 100 -21 29 -55
97 -55 109 0 4 -16 41 -36 83 l-36 76 23 46 c13 25 28 73 34 105 l10 59 48 12
c65 17 81 33 39 41 -18 4 -35 11 -38 15 -3 5 -9 7 -14 4 -9 -6 -134 124 -126
132 14 15 83 -34 105 -74 14 -27 33 -31 24 -5 -12 31 -57 95 -90 127 -18 18
-33 36 -33 41 0 5 -14 24 -30 42 -23 25 -38 32 -66 32 -19 0 -42 6 -50 14 -16
16 -20 111 -5 120 11 7 97 -55 123 -88 22 -28 34 -14 14 16 -37 56 -240 198
-284 198 -7 0 -43 31 -80 70 -61 62 -97 87 -222 150 -11 5 -29 15 -40 20 -24
12 -171 13 -202 1 -71 -27 -115 -47 -128 -58 -8 -7 -44 -36 -80 -64 -130 -104
-144 -161 -85 -359 8 -24 12 -46 10 -48 -2 -2 -25 1 -52 8 -26 6 -66 15 -89
19 -40 7 -183 75 -234 111 -46 32 -341 171 -435 205 -27 10 -54 22 -60 27 -5
4 -19 8 -32 8 -13 0 -23 5 -23 10 0 6 -8 10 -17 10 -22 0 -130 34 -139 43 -4
4 -16 7 -26 7 -10 0 -26 4 -36 9 -9 6 -42 17 -72 26 -30 9 -88 33 -128 53 -74
37 -133 92 -317 296 -39 43 -74 74 -78 70z m2789 -1136 c48 -42 74 -112 74
-200 0 -45 -4 -78 -10 -78 -5 0 -10 7 -10 15 0 14 -72 135 -132 222 -16 24
-26 47 -23 53 12 19 74 11 101 -12z m-1561 -2719 c61 -5 176 -9 258 -9 81 0
147 -4 147 -8 0 -4 -14 -16 -31 -26 -82 -49 -211 -208 -248 -306 -7 -19 -17
-44 -21 -55 -16 -41 -30 -144 -30 -221 -1 -43 -5 -110 -10 -149 -5 -38 -12
-92 -15 -120 -4 -27 -10 -59 -15 -70 -11 -29 -45 -162 -65 -260 -3 -16 -10
-48 -15 -70 -5 -22 -14 -67 -19 -100 -6 -33 -15 -76 -20 -95 -5 -19 -15 -61
-22 -92 -7 -32 -14 -58 -17 -58 -5 0 -67 56 -214 192 -215 200 -264 244 -343
314 -44 38 -110 93 -147 122 -36 29 -68 56 -70 60 -2 4 -32 32 -68 62 -103 88
-112 96 -176 152 -33 29 -92 80 -132 113 l-72 60 28 22 c15 13 30 23 34 23 7
0 88 35 148 63 33 15 152 91 181 114 106 86 179 153 269 244 76 78 113 109
135 112 42 7 417 -2 550 -14z"/>
</g>
</svg>
